<?xml version="1.0" encoding="utf-8"?>
<!-- Generator: Adobe Illustrator 27.0.0, SVG Export Plug-In . SVG Version: 6.00 Build 0)  -->
<svg version="1.1" id="Capa_1" xmlns="http://www.w3.org/2000/svg" xmlns:xlink="http://www.w3.org/1999/xlink" x="0px" y="0px"
	 viewBox="0 0 64.61 64.61" style="enable-background:new 0 0 64.61 64.61;" xml:space="preserve">
<style type="text/css">
	.st0{fill:#36363C;}
</style>
<path class="st0" d="M63.44,57.78L42.66,37c6.47-9.16,5.62-21.94-2.57-30.13c-9.16-9.16-24.06-9.16-33.22,0
	c-9.16,9.16-9.16,24.06,0,33.22c4.58,4.58,10.6,6.87,16.61,6.87c4.75,0,9.48-1.45,13.52-4.3l20.78,20.78
	c0.78,0.78,1.8,1.17,2.83,1.17s2.05-0.39,2.83-1.17C65,61.88,65,59.34,63.44,57.78z M34.43,34.43c-6.04,6.04-15.87,6.04-21.91,0
	c-6.04-6.04-6.04-15.87,0-21.91C15.55,9.51,19.51,8,23.48,8s7.93,1.51,10.95,4.53C40.47,18.57,40.47,28.39,34.43,34.43z"/>
</svg>
