<?xml version="1.0" encoding="utf-8"?>
<!-- Generator: Adobe Illustrator 27.0.0, SVG Export Plug-In . SVG Version: 6.00 Build 0)  -->
<svg version="1.1" id="Capa_1" xmlns="http://www.w3.org/2000/svg" xmlns:xlink="http://www.w3.org/1999/xlink" x="0px" y="0px"
	 viewBox="0 0 558.7 445.7" style="enable-background:new 0 0 558.7 445.7;" xml:space="preserve">
<style type="text/css">
	.st0{fill:#C67DA2;}
	.st1{fill:#F0958D;}
	.st2{fill:none;stroke:#36363C;stroke-linecap:round;stroke-linejoin:round;stroke-miterlimit:10;}
	.st3{fill:#ACCFD8;}
	.st4{fill:#F0B48C;stroke:#36363C;stroke-linecap:round;stroke-linejoin:round;stroke-miterlimit:10;}
	.st5{fill:#36363C;stroke:#36363C;stroke-linecap:round;stroke-linejoin:round;stroke-miterlimit:10;}
	.st6{fill:#F0958D;stroke:#36363C;stroke-linecap:round;stroke-linejoin:round;stroke-miterlimit:10;}
	.st7{fill:#FEFAF4;stroke:#36363C;stroke-linecap:round;stroke-linejoin:round;stroke-miterlimit:10;}
	.st8{fill:#FEFAF4;}
</style>
<polygon class="st0" points="8.9,267.7 279.2,340.1 53.9,387.1 "/>
<polygon class="st0" points="120.6,84.9 302.9,2.1 477.8,217.9 434.9,310.6 1.9,252.6 "/>
<polygon class="st0" points="317.4,2.1 516.9,149.1 506.9,37.1 "/>
<g>
	<g>
		<path class="st1" d="M388.2,322.5c-140.6-89.1-155.8-36.7-155.8-36.7s44.8,6.8,81.2,87.7c46.8,104.2,216.4,87,239-22.2
			c14.6-70.3-19.4-125.2-51-153.1c-24.6-21.8-55.4-35.4-87.9-40.1c-49.5-7-106,9.6-163.8,28.6c-53.6,17.6-127.8,155.1-36.7,219.4
			c87.9,62.1,157-8.3,157-8.3"/>
		<path class="st2" d="M388.2,322.5c-140.6-89.1-155.8-36.7-155.8-36.7s44.8,6.8,81.2,87.7c46.8,104.2,216.4,87,239-22.2
			c14.6-70.3-19.4-125.2-51-153.1c-24.6-21.8-55.4-35.4-87.9-40.1c-49.5-7-106,9.6-163.8,28.6c-53.6,17.6-127.8,155.1-36.7,219.4
			c87.9,62.1,157-8.3,157-8.3"/>
	</g>
	<g>
		<path class="st3" d="M232.5,285.8c0.1-1.5,0.2-3.1,0.3-4.6c1.6-19.4,7.4-38.2,16.7-55.3c13.3-24.5,32.9-56.9,32.9-56.9l21-0.7
			c0,0-32.2,48.9-17.1,73c27.5,44,125.7,28.5,125.7,28.5c5.5-60.8,31.6-104.7,31.6-104.7s5.8,0.9,16.3,5.8
			c9.3,4.3,18.1,9.9,18.1,9.9s-23.3,13.4-12.5,129c0,0-18.9,55.5-71.9,16.5c-8.7-6.4-17-11.5-26.5-16.7
			C336.4,292.7,278.8,266.2,232.5,285.8z"/>
		<path class="st2" d="M232.5,285.8c0.1-1.5,0.2-3.1,0.3-4.6c1.6-19.4,7.4-38.2,16.7-55.3c13.3-24.5,32.9-56.9,32.9-56.9l21-0.7
			c0,0-32.2,48.9-17.1,73c27.5,44,125.7,28.5,125.7,28.5c5.5-60.8,31.6-104.7,31.6-104.7s5.8,0.9,16.3,5.8
			c9.3,4.3,18.1,9.9,18.1,9.9s-23.3,13.4-12.5,129c0,0-18.9,55.5-71.9,16.5c-8.7-6.4-17-11.5-26.5-16.7
			C336.4,292.7,278.8,266.2,232.5,285.8z"/>
	</g>
	<path class="st4" d="M368.1,145.6L349,105.5l-24.3-10.8L242,126.8l-22.5,37.4c0,0-12.6-11.2-2.9,11.2c9.7,22.4-4.4,40.5-4.4,40.5
		s21,4.6,36.8,0.4c15.8-4.2,70.3,7.2,70.3,7.2L368.1,145.6z"/>
	<path class="st5" d="M205,166.8c0,0,18,5.9,15,28.6c0,0,71.6,9.2,106.5-82.6L205,166.8z"/>
	<path class="st5" d="M195.4,200.1c-18,16.8-31.5-18.4-31.5-18.4l43.9-27.8C207.9,153.9,206.8,189.6,195.4,200.1z"/>
	<g>
		<path class="st5" d="M163.9,181.7l18-11.4C164.7,162.7,154.9,157,163.9,181.7z"/>
		<path class="st6" d="M297,53.7c-145.9,20.6-94.8,80-78.6,93.6L182,170.3c7.3,3.2,15.9,6.8,25.1,8.6
			c64.6,12.5,98.5-25.2,110.8-46.1c20.3-34.4,57.5-25.6,57.5-25.6S391.4,40.4,297,53.7z"/>
	</g>
	<path class="st7" d="M385.8,153.7c6.7,0.2,1.1-47.7-30-65.2c-31.1-17.6-11.7,35.5-11.7,35.5s2.4,6.2,7.1,13.5
		c18.7,28.9-15.1,46.7-9.4,3.6c-5.7,21.4-25.4,57.6-93,75.2c0,0,25.8,50.2,73.8,43.7c21.4-2.9,36.7-11.2,47.4-21.9
		c19.9,1,46.9-42.2,46.9-42.2L385.8,153.7z"/>
	<path class="st2" d="M228.4,217.9c0,0-14.6-0.4-25.1-4.6"/>
	<path class="st5" d="M281.3,267.7c4.6-21.7,14.8-60.4,72.4-37.9L281.3,267.7z"/>
	<path class="st5" d="M390.8,324.3c0,0,9.1,17.7,31.3,21.1c22.2,3.4,35,3.7,42.3,13.5l7.3-37.7l-41.7-14.1L390.8,324.3z"/>
	<path class="st2" d="M370,238.1c11.5-10,21-24.1,25.9-38.3"/>
	<path class="st7" d="M462.7,355.5c1.1,6,7.9,6.7,13.7,0.9c3-3,5.2-12.7,5-17.2c-0.5-15.4-9-27.1-10.7-30c0,0,18.5,4.8,22.6,23.2
		c2.1,9.2,15,7.3,13.4-5c-3.2-24.5-21.8-45.6-46.9-48.3c-35.1-3.7-63.4,18.8-71.7,43.5c7.7,6,11.5,8.2,16.3,10.8
		c9.8,5.4,19.1,7.4,28.2,6.5C454.6,337.8,460.2,345.6,462.7,355.5c3.4-2.8,5.7-8.6,4-18.6c-2-12.1-13.7-15.1-13.7-15.1"/>
	
		<ellipse transform="matrix(0.9459 -0.3245 0.3245 0.9459 -24.3983 83.312)" class="st7" cx="237.6" cy="114.8" rx="27.4" ry="24.8"/>
	<path class="st7" d="M478.6,302.5c0,0,6,4.2,9.6,14.6c9,25.8-7.6,36.6-11.8,39.3c4-5.7,8.3-17.3,1.8-32.4
		c-4.9-11.6-13.8-15.8-13.8-15.8"/>
	<path class="st5" d="M555,299.8c0,0-4.6,134.5-145.7,141.5c0,0,61.4,11.3,110-31.6C567.8,366.8,555,299.8,555,299.8z"/>
	<path class="st5" d="M271.8,310.6c0,0,44.2,65.2,17.3,98.8c-26.8,33.5-83.8-6.9-97.1-22.7c36.7,36.7,63.1,42.1,88.2,44.9
		s59.4-9.9,65.7-15.9c-18.2-14.4-27.3-30.8-39.4-56.7C294.4,333,271.8,310.6,271.8,310.6z"/>
</g>
<line class="st8" x1="-1119.6" y1="-161.9" x2="-1119.6" y2="-251.9"/>
</svg>
