<?xml version="1.0" encoding="utf-8"?>
<!-- Generator: Adobe Illustrator 27.0.0, SVG Export Plug-In . SVG Version: 6.00 Build 0)  -->
<svg version="1.1" id="Capa_1" xmlns="http://www.w3.org/2000/svg" xmlns:xlink="http://www.w3.org/1999/xlink" x="0px" y="0px"
	 viewBox="0 0 557.9 363.3" style="enable-background:new 0 0 557.9 363.3;" xml:space="preserve">
<style type="text/css">
	.st0{fill:#ACCFD8;}
	.st1{fill:#FDF9F3;stroke:#35353B;stroke-width:1.5;stroke-linecap:round;stroke-linejoin:round;stroke-miterlimit:10;}
	.st2{fill:#35353B;}
	.st3{fill:#FBD283;}
	.st4{fill:#EF938C;}
	.st5{fill:none;stroke:#35353B;stroke-width:1.5;stroke-linecap:round;stroke-linejoin:round;stroke-miterlimit:10;}
	.st6{fill:#C57DA1;}
	.st7{fill:none;stroke:#35353B;stroke-linecap:round;stroke-linejoin:round;stroke-miterlimit:10;}
	.st8{fill:#35353B;stroke:#35353B;stroke-linecap:round;stroke-linejoin:round;stroke-miterlimit:10;}
</style>
<g id="Capa_1_00000057126842577987867030000002522399758876822417_">
	<polygon class="st0" points="442.1,94.1 397.3,189.9 418.5,293.5 313.6,280.5 221.6,332.7 201.5,228.9 123.5,157.6 216,106.4 
		259.7,10.1 337,82.3 	"/>
	<path class="st1" d="M279.6,251.7C246.3,223.5,246,211,248.3,206c5.5-11.8,30,25.6,65.4,25.8"/>
	<path class="st1" d="M278.2,265.4c0,0-38.1-9.1-54.6-44.3c-11.8-25.2,8.9-12.6,26.3,3.3c15.8,14.4,57.3,20.2,78.5,19.9"/>
	<ellipse class="st2" cx="538.2" cy="260.5" rx="17.4" ry="98"/>
	<g>
		<path class="st1" d="M555,260.5c0-19.6-1.1-38.1-2.9-53.6c-63.5-8.7-187.3-41.2-219.4,5.2c-32.7,47.3-26.4,48.5-48.8,51.6
			s-38.9,3.1-47.5,5.1s-18.6,12.1-2,14.1c0,0,86.3,10.6,100,11.4s35.3,2,56.5-17.7c21.2-19.6,30.2-33,59.6-14.5
			c25.1,15.7,82.9,56.4,99.2,68C553,312.4,555,287.5,555,260.5z"/>
	</g>
	<g>
		<g>
			<path class="st3" d="M339.8,284.9c-0.2,0-0.4-0.1-0.5-0.2l-163.8-149c-0.2-0.2-0.3-0.6-0.2-0.8l4-9.5c0-0.1,0.1-0.2,0.2-0.3
				l83.4-75.9c1-0.9,2.3-1.4,3.7-1.4c1.3,0,2.6,0.5,3.6,1.4L415,177.8c2.1,1.8,2.4,4.9,0.8,7.2l-65.9,94.4c-0.1,0.1-0.2,0.2-0.3,0.2
				l-9.5,5.3C340,284.8,339.9,284.9,339.8,284.9z"/>
			<path class="st2" d="M266.6,48.4c1.1,0,2.2,0.4,3.1,1.2l144.8,128.6c1.8,1.6,2.1,4.2,0.7,6.2l-65.9,94.4l-9.5,5.3L176,135.1
				l4-9.5l83.4-75.9C264.3,48.8,265.4,48.4,266.6,48.4 M266.6,46.9c-1.5,0-3,0.6-4.2,1.6l-83.4,76c-0.2,0.1-0.3,0.3-0.4,0.5l-4,9.5
				c-0.2,0.6-0.1,1.3,0.4,1.7l163.8,149c0.3,0.3,0.6,0.4,1,0.4c0.2,0,0.5-0.1,0.7-0.2l9.5-5.3c0.2-0.1,0.4-0.3,0.5-0.5l65.9-94.4
				c1.8-2.6,1.4-6.1-1-8.2L270.7,48.5C269.5,47.5,268.1,46.9,266.6,46.9L266.6,46.9z"/>
		</g>
	</g>
	<path class="st1" d="M196.9,59.3c0,0,5.1,2,14.6-0.2s23.4-8.5,23.4-8.5l-4.1-13.8L196.9,59.3z"/>
	<polygon class="st4" points="176,135.1 180,125.6 206.3,101.6 244.7,132.3 216,158.4 349.3,278.8 339.8,284.1 	"/>
	<path class="st1" d="M210.1,26c50.7-15,67.3-20.4,75.3-22.6s15.8,0.8,6,8.4s-26.5,15.8-26.5,15.8L210.1,26z"/>
	<ellipse class="st2" cx="28.3" cy="138.1" rx="17.4" ry="98"/>
	<path class="st1" d="M317.5,25.5c-6.4,4.7-52.6,12.3-65.1,11.1S210.1,13,210.1,13s97.1,3.8,103.6,4.8
		C320.3,18.8,321.3,22.8,317.5,25.5z"/>
	<g>
		<path class="st1" d="M263.7,98.5c-1-14-9-64-15.1-71s-15.9-15-58.9-21s-53-3-69.2,5c-14.5,7.2-89.3,54-104.9,63.8
			c-2.6,17.1-4.2,39.2-4.2,62.8c0,38.2,4,72.2,9.7,88C39.7,215,92.6,137.4,132.6,80.5c22.6,18.7,46.6,25.7,65.6,27.7
			c12-10.9,16-14.5,16-14.5c-10-11-15.9-13.7-19-20.2c-5.5-11.7,6.1-13.9,9.3-14.8c15.3-4.5,23.1-14.2,23.1-14.2s4,11,9.6,23
			c3.4,7.2,11.3,22.9,17.5,32.1C258.4,105.1,264.1,104.1,263.7,98.5z"/>
	</g>
	<line class="st5" x1="349.3" y1="278.8" x2="168.3" y2="115.2"/>
	<path class="st3" d="M180,125.6"/>
	<g>
		<g>
			<g>
				<polygon class="st6" points="244.4,151.2 247.8,147.4 280,177.8 276.6,181.6 				"/>
			</g>
			<g>
				<polygon class="st6" points="238.9,157.2 242.3,153.5 274.5,183.9 271.1,187.6 				"/>
			</g>
			<g>
				<polygon class="st6" points="249.9,145.1 253.4,141.3 285.6,171.7 282.1,175.5 				"/>
			</g>
			<g>
				<polygon class="st6" points="255.5,139 258.9,135.3 291.1,165.7 287.7,169.4 				"/>
			</g>
			<polygon class="st6" points="300,92.1 298.8,91 286.7,104.3 302.9,143.1 263.1,130.7 261.5,135.5 305.8,149.6 307.2,148 
				290,107.4 318,133.8 314.9,137.1 316.1,138.2 331.2,121.6 330.1,120.5 327,123.8 297,95.4 			"/>
		</g>
	</g>
	<path class="st1" d="M412.2,204.5c-24.6-4.7-42,10.7-71.6,32.3c-17.5,12.7-33.4,16.9-51.2,21.6c-17.8,4.6-9.9,20.8,10.3,22.4
		c8.5,0.7,43,0,82.7-12.9"/>
	<path class="st7" d="M280,258.1"/>
	<line class="st5" x1="19.9" y1="72.6" x2="7" y2="80"/>
	<path class="st5" d="M420.1,188.2c0,0-9-1.6-18.8,1.2"/>
	<path class="st8" d="M426.7,253.5c36.1-12.2,126.8,47.5,126.8,47.5l-3.6,29.3C549.9,330.2,436.8,246,426.7,253.5z"/>
	<path class="st2" d="M402.8,203.4c0,0,10.2-16.3,28.3-14.5c0,0-12.6-0.9-17.6-1.2L402.8,203.4z"/>
	<path class="st2" d="M339.8,284.1c0,0,31.7-0.2,39.1-15.3l-27.5,7l-2.1,3L339.8,284.1z"/>
	<path class="st2" d="M157.3,3.4c0,0-23.3-6.2-85.3,48s-60.6,63.3-60.6,63.3l4.1-39.3c0,0,26.8-16.6,57.8-36.1
		C100.8,21.8,130.6,0,157.3,3.4z"/>
</g>
</svg>
