<?xml version="1.0" encoding="utf-8"?>
<!-- Generator: Adobe Illustrator 27.0.0, SVG Export Plug-In . SVG Version: 6.00 Build 0)  -->
<svg version="1.1" xmlns="http://www.w3.org/2000/svg" xmlns:xlink="http://www.w3.org/1999/xlink" x="0px" y="0px"
	 viewBox="0 0 557.9 363.3" style="enable-background:new 0 0 557.9 363.3;" xml:space="preserve">
<style type="text/css">
	.st0{display:none;}
	.st1{fill:#ACCFD8;}
	.st2{fill:#FEFAF4;stroke:#36363C;stroke-linecap:round;stroke-linejoin:round;stroke-miterlimit:10;}
	.st3{fill:#36363C;}
	.st4{fill:#FCD385;}
	.st5{fill:#F0958D;}
	.st6{fill:none;stroke:#36363C;stroke-linecap:round;stroke-linejoin:round;stroke-miterlimit:10;}
	.st7{fill:#C67DA2;}
	.st8{fill:#36363C;stroke:#36363C;stroke-linecap:round;stroke-linejoin:round;stroke-miterlimit:10;}
</style>
<g id="Capa_2" class="st0">
	
		<image style="display:inline;overflow:visible;" width="1000" height="750" xlink:href="Hands with berries.png"  transform="matrix(0.635 0 0 0.635 -41.2558 -79.6755)">
	</image>
</g>
<g id="Capa_1">
	<polygon class="st1" points="437.1,94.1 392.3,189.9 413.5,293.5 308.6,280.5 216.6,332.7 196.5,228.9 118.5,157.6 211,106.4 
		254.7,10.1 332,82.3 	"/>
	<path class="st2" d="M278.1,253.7c-33.3-28.2-33.6-40.7-31.3-45.7c5.5-11.8,30,25.6,65.4,25.8"/>
	<path class="st2" d="M276.8,267.4c0,0-38.1-9.1-54.6-44.3c-11.8-25.2,8.9-12.6,26.3,3.3c15.8,14.4,57.3,20.2,78.5,19.9"/>
	<ellipse class="st3" cx="536.8" cy="262.5" rx="17.4" ry="98"/>
	<g>
		<path class="st2" d="M553.6,262.5c0-19.6-1.1-38.1-2.9-53.6c-63.5-8.7-187.3-41.2-219.4,5.2c-32.7,47.3-26.4,48.5-48.8,51.6
			s-38.9,3.1-47.5,5.1c-8.6,2-18.6,12.1-2,14.1c0,0,86.3,10.6,100,11.4s35.3,2,56.5-17.7c21.2-19.6,30.2-33,59.6-14.5
			c25.1,15.7,82.9,56.4,99.2,68C551.6,314.4,553.6,289.5,553.6,262.5z"/>
	</g>
	<g>
		<g>
			<path class="st4" d="M338.4,286.6c-0.1,0-0.2,0-0.3-0.1l-163.8-149c-0.2-0.1-0.2-0.4-0.1-0.6l4-9.5c0-0.1,0.1-0.1,0.1-0.2
				l83.4-75.9c1-0.9,2.2-1.4,3.5-1.4c1.3,0,2.5,0.5,3.4,1.3l144.8,128.6c2,1.7,2.3,4.7,0.8,6.8l-65.9,94.4c0,0.1-0.1,0.1-0.2,0.2
				l-9.5,5.3C338.5,286.6,338.4,286.6,338.4,286.6z"/>
			<path class="st3" d="M265.1,50.4c1.1,0,2.2,0.4,3.1,1.2L413,180.2c1.8,1.6,2.1,4.2,0.7,6.2l-65.9,94.4l-9.5,5.3l-163.8-149l4-9.5
				L262,51.6C262.9,50.8,264,50.4,265.1,50.4 M265.1,49.4c-1.4,0-2.8,0.5-3.8,1.5l-83.4,75.9c-0.1,0.1-0.2,0.2-0.2,0.4l-4,9.5
				c-0.2,0.4-0.1,0.8,0.2,1.1l163.8,149c0.2,0.2,0.4,0.3,0.7,0.3c0.2,0,0.3,0,0.5-0.1l9.5-5.3c0.1-0.1,0.2-0.2,0.3-0.3l65.9-94.4
				c1.6-2.4,1.3-5.6-0.9-7.5L268.9,50.8C267.9,49.9,266.5,49.4,265.1,49.4L265.1,49.4z"/>
		</g>
	</g>
	<path class="st2" d="M195.5,61.3c0,0,5.1,2,14.6-0.2c9.5-2.2,23.4-8.5,23.4-8.5l-4.1-13.8L195.5,61.3z"/>
	<polygon class="st5" points="174.5,137.1 178.6,127.5 204.9,103.6 243.2,134.3 214.6,160.3 347.9,280.8 338.4,286.1 	"/>
	<path class="st2" d="M208.7,28C259.4,13,275.9,7.5,284,5.4s15.8,0.8,6,8.4s-26.5,15.8-26.5,15.8L208.7,28z"/>
	<ellipse class="st3" cx="26.9" cy="140.1" rx="17.4" ry="98"/>
	<path class="st2" d="M316.1,27.5c-6.4,4.7-52.6,12.3-65.1,11.1S208.7,15,208.7,15s97.1,3.8,103.6,4.8
		C318.8,20.7,319.8,24.8,316.1,27.5z"/>
	<g>
		<path class="st2" d="M262.2,100.5c-1-14-9-64-15.1-71c-6.1-7-15.9-15-58.9-21s-53-3-69.2,5c-14.5,7.2-89.3,54-104.9,63.8
			c-2.5,17.1-4.1,39.1-4.1,62.8c0,38.2,4,72.2,9.7,88c18.6-11.2,71.5-88.8,111.5-145.7c22.6,18.7,46.6,25.7,65.6,27.7
			c12-10.9,16-14.5,16-14.5c-10-11-15.9-13.7-19-20.2c-5.5-11.7,6.1-13.9,9.3-14.8c15.3-4.5,23.1-14.2,23.1-14.2s4,11,9.6,23
			c3.4,7.2,11.3,22.9,17.5,32.1C257,107,262.6,106.1,262.2,100.5z"/>
	</g>
	<line class="st6" x1="347.9" y1="280.8" x2="166.9" y2="117.2"/>
	<path class="st4" d="M178.6,127.5"/>
	<g>
		<g>
			<polygon class="st7" points="243,153.1 246.4,149.4 278.6,179.8 275.2,183.5 			"/>
		</g>
		<g>
			<polygon class="st7" points="237.5,159.2 240.9,155.4 273.1,185.8 269.7,189.6 			"/>
		</g>
		<g>
			<polygon class="st7" points="248.5,147.1 252,143.3 284.2,173.7 280.7,177.5 			"/>
		</g>
		<g>
			<polygon class="st7" points="254,141 257.5,137.2 289.7,167.6 286.2,171.4 			"/>
		</g>
		<polygon class="st7" points="298.6,94.1 297.4,93 285.3,106.3 301.5,145.1 261.6,132.7 260.1,137.5 304.4,151.5 305.7,150 
			288.6,109.4 316.5,135.8 313.5,139.1 314.7,140.2 329.8,123.6 328.6,122.5 325.6,125.8 295.5,97.4 		"/>
	</g>
	<path class="st2" d="M410.8,206.5c-24.6-4.7-42,10.7-71.6,32.3c-17.5,12.7-33.4,16.9-51.2,21.6s-9.9,20.8,10.3,22.4
		c8.5,0.7,43,0,82.7-12.9"/>
	<path class="st6" d="M278.6,260"/>
	<line class="st6" x1="18.5" y1="74.6" x2="3.5" y2="84"/>
	<path class="st6" d="M418.6,190.2c0,0-9-1.6-18.8,1.2"/>
	<path class="st8" d="M425.3,255.4c36.1-12.2,126.8,47.5,126.8,47.5l-3.6,29.3C548.4,332.2,435.3,248,425.3,255.4z"/>
	<path class="st3" d="M401.4,205.4c0,0,10.2-16.3,28.3-14.5c0,0-12.6-0.9-17.6-1.2L401.4,205.4z"/>
	<path class="st3" d="M338.4,286.1c0,0,31.7-0.2,39.1-15.3l-27.5,7l-2.1,3L338.4,286.1z"/>
	<path class="st3" d="M155.9,5.4c0,0-23.3-6.2-85.3,48S10,116.7,10,116.7l4.1-39.3c0,0,26.8-16.6,57.8-36.1
		C99.4,23.8,129.2,2,155.9,5.4z"/>
</g>
</svg>
