<?xml version="1.0" encoding="utf-8"?>
<!-- Generator: Adobe Illustrator 27.0.0, SVG Export Plug-In . SVG Version: 6.00 Build 0)  -->
<svg version="1.1" id="Capa_1" xmlns="http://www.w3.org/2000/svg" xmlns:xlink="http://www.w3.org/1999/xlink" x="0px" y="0px"
	 viewBox="0 0 602 936.8" style="enable-background:new 0 0 602 936.8;" xml:space="preserve">
<style type="text/css">
	.st0{fill:#36363C;stroke:#36363C;stroke-linecap:round;stroke-linejoin:round;stroke-miterlimit:10;}
	.st1{fill:#FEFAF4;stroke:#36363C;stroke-linecap:round;stroke-linejoin:round;stroke-miterlimit:10;}
	.st2{fill:none;stroke:#36363C;stroke-linecap:round;stroke-linejoin:round;stroke-miterlimit:10;}
	.st3{fill:none;stroke:#000000;stroke-miterlimit:10;}
	.st4{fill:#FEFAF4;}
	.st5{fill:#F0B48C;stroke:#36363C;stroke-linecap:round;stroke-linejoin:round;stroke-miterlimit:10;}
	.st6{fill:#36363C;}
</style>
<polygon class="st0" points="601.2,924.2 0.8,924.2 0.8,615 379.1,575.1 601.2,546.2 "/>
<g>
	<polygon class="st1" points="110,869.3 110,814.7 55.4,814.7 55.4,869.3 0.8,869.3 0.8,923.8 55.4,923.8 110,923.8 164.6,923.8 
		164.6,869.3 	"/>
	<polygon class="st1" points="55.4,814.5 110,814.5 110,759.9 55.4,759.9 55.4,705.3 0.8,705.3 0.8,759.9 0.8,814.5 0.8,869 
		55.4,869 	"/>
	<polyline class="st1" points="437.5,572.7 437.5,650.7 492.1,650.7 492.1,705.3 546.7,705.3 546.7,650.7 546.7,596.1 546.7,541.6 
		492.1,541.6 492.1,596.1 	"/>
	<polyline class="st1" points="492.1,596.1 492.1,541.5 437.5,541.5 437.5,486.9 382.9,486.9 382.9,541.5 328.3,541.5 328.3,596.1 
		382.9,596.1 	"/>
	<polygon class="st1" points="217.8,646 163.4,650.4 109,654.8 113.4,709.2 167.8,704.8 222.2,700.4 226.6,754.8 281,750.4 
		276.6,696 272.2,641.6 	"/>
	<polygon class="st1" points="491.4,728.1 437,722.7 442.5,668.3 447.9,614 502.2,619.5 496.8,673.8 551.1,679.2 545.7,733.5 
		540.2,787.8 485.9,782.4 	"/>
	<polygon class="st1" points="291.2,886.1 331.9,849.7 372.6,813.3 336.2,772.6 295.5,809 254.8,845.4 218.4,804.7 177.7,841 
		214.1,881.7 250.5,922.4 	"/>
	<polyline class="st1" points="546.6,432.4 601.2,432.4 601.2,487 601.2,541.6 601.2,596.1 546.6,596.1 546.6,541.6 546.6,487 
		492.1,487 492.1,432.4 	"/>
	<polyline class="st0" points="328.3,544.5 328.3,599.1 273.7,599.1 219.1,599.1 219.1,653.7 164.6,653.7 164.6,599.1 164.6,544.5 	
		"/>
	<polyline class="st1" points="328.3,541.5 328.3,596.1 273.7,596.1 219.1,596.1 219.1,650.7 164.6,650.7 164.6,596.1 164.6,541.5 	
		"/>
	<polygon class="st0" points="325.7,651 325.7,705.6 325.7,760.2 271.2,760.2 271.2,705.6 271.2,651 216.6,651 216.6,596.4 
		271.2,596.4 325.7,596.4 	"/>
	<polygon class="st1" points="329.7,644 329.7,698.6 329.7,753.2 275.2,753.2 275.2,698.6 275.2,644 220.6,644 220.6,589.4 
		275.2,589.4 329.7,589.4 	"/>
	<polygon class="st0" points="387.8,585.7 333.4,581.4 329.1,635.9 324.8,690.3 379.2,694.6 433.6,698.9 437.9,644.4 442.2,590 	"/>
	<polygon class="st1" points="452.2,686.1 431.6,736.6 411,787.2 360.5,766.5 381.1,716 401.7,665.5 351.2,644.8 371.8,594.3 
		422.3,614.9 472.9,635.5 	"/>
	<polygon class="st1" points="390.8,581.7 336.4,577.4 332.1,631.9 327.8,686.3 382.2,690.6 436.6,694.9 440.9,640.4 445.2,586 	"/>
	<polygon class="st0" points="310.2,709 256.5,719 266.5,772.7 276.6,826.3 330.2,816.3 383.9,806.2 373.9,752.6 363.8,698.9 	"/>
	<polyline class="st0" points="55.4,599.1 55.4,653.7 110,653.7 164.6,653.7 164.6,599.1 164.6,544.5 110,544.5 	"/>
	<polyline class="st1" points="55.4,596.1 55.4,650.7 110,650.7 164.6,650.7 164.6,596.1 164.6,541.5 110,541.5 	"/>
	<polygon class="st1" points="312.7,700.8 259.1,710.8 269.1,764.5 279.2,818.1 332.8,808.1 386.5,798 376.4,744.4 366.4,690.7 	"/>
	<polyline class="st2" points="110,541.6 164.6,541.6 164.6,487 219.1,487 219.1,432.4 219.1,421 	"/>
	<polygon class="st0" points="168.2,862.1 113.9,867.6 108.3,813.3 102.7,759 157,753.5 162.6,807.8 216.9,802.2 222.5,856.5 
		228,910.8 173.7,911.4 	"/>
	<polyline class="st2" points="512.3,541.5 546.6,541.5 546.6,486.9 492.1,486.9 492.1,432.3 437.5,432.3 382.9,432.3 382.9,486.9 
		437.5,486.9 437.5,541.5 464.8,541.5 	"/>
	<polyline class="st1" points="55.4,596.1 55.4,650.7 110,650.7 110,705.3 110,759.9 55.4,759.9 55.4,705.3 0.8,705.3 0.8,650.7 
		0.8,456.1 	"/>
	<polygon class="st0" points="207.9,752.6 201.5,698.4 147.3,704.8 97.1,711.2 103.5,765.5 153.7,759 160.1,813.2 214.3,806.8 
		268.5,800.4 262.1,746.2 	"/>
	<polygon class="st1" points="172.2,862.1 117.9,867.6 112.3,813.3 106.7,759 161,753.5 166.6,807.8 220.9,802.2 226.5,856.5 
		232,910.8 177.7,916.4 	"/>
	<polygon class="st1" points="214.5,745.9 208.1,691.7 153.9,698.1 99.7,704.6 106.1,758.8 160.3,752.4 166.7,806.6 220.9,800.1 
		275.2,793.7 268.7,739.5 	"/>
	<path class="st3" d="M0.8,922.8"/>
	<rect x="39" y="698.2" class="st4" width="34" height="34"/>
	<line class="st1" x1="219.1" y1="541.5" x2="241.4" y2="541.5"/>
	<rect x="463.1" y="529.9" class="st4" width="50.3" height="13.3"/>
	<rect x="525.3" y="480" class="st4" width="32.6" height="23.3"/>
	<rect x="541.5" y="620.2" class="st4" width="16.3" height="54"/>
	<rect x="374.7" y="464.6" class="st4" width="16.3" height="54"/>
</g>
<g>
	<path class="st1" d="M544.6,860.9l-20.6,34.9c5-2.8,19.3,0.4,29.3-0.6c11.1-1.1,22.1-1.6,22.1-1.6l10.4,15.5l-13,5.1
		c-0.6,0.2-1.2,0.4-1.8,0.5l-3.3,0.5l-0.7-8l-57.5,15.9c-8.6,2.4-16.7-5-15.2-13.8L503,842"/>
	<path class="st1" d="M601.1,895c-11.9,2.4-24.9,3.6-33.5,6.6c5-19.1,13.3-47.8,13.3-47.8l-45.5-0.7l3.4,73.5
		c1.3,7.2,8.9,11.4,15.7,8.8l46.6-21.4V895z"/>
	<line class="st1" x1="563.7" y1="915.1" x2="573.2" y2="881.1"/>
	<line class="st1" x1="519.7" y1="903.9" x2="538.9" y2="869.3"/>
	<path class="st5" d="M501.6,849.2c-3.5,21.3-7.5,59.9-7.5,59.9s24.1-7.4,52.6-15.9c22.8-6.8,32.3-1.9,32.3-1.9s3.6-36.7,6-45.6
		c7.4-27.5,12.4-42.1,0-57.8c-31.2-39.4-82-3.7-82-3.7L501.6,849.2z"/>
	<path class="st0" d="M498.4,862.4c0,0-1.5,7.7-1.6,22.3c2.4-5.4,16.7-4.4,23-1.2L498.4,862.4z"/>
	<polygon class="st1" points="546.6,650.8 546.6,705.4 546.6,760 546.6,814.6 601.2,814.6 601.2,760 601.2,705.4 601.2,650.8 
		601.2,596.2 546.6,596.2 	"/>
	<polygon class="st0" points="448.2,690.1 427.6,740.6 407,791.2 356.5,770.5 377.1,720 397.7,669.5 347.2,648.8 367.8,598.3 
		418.3,618.9 468.9,639.5 	"/>
	<path class="st5" d="M433,778.3l21.1-50c0,0-38.1,20.9-54.6,43.3c-9.6,13.1-7.1,48.1-7.3,57.6c-0.2,9.5,1,20.1,5.7,32l3.7,44
		l-26.1-40.4l-3.6,17.9l25.9,39.7c5.3,5.7,14.8,3.1,16.5-4.5l11.2-61.6L412,843.8c0,0,20.4,1.9,39.6,23.5c0,0,11.6,1.2,15-7
		c6.2-14.7,26.5-18,34.9-11.1c0,0,2-54.7,1.3-65.1c0,0-17.9,14-39.8,3.7c-25.7-12-39.8-7.1-39.8-7.1l12.7-13.8l-39.6,16.7
		c0,17.7,16,14.7,16,13L433,778.3z"/>
	<path class="st0" d="M393.4,790c0,0,1.6-1.1,3.9-0.1c-1.7-5.6-2.4-5.4,3-7.1c5.2-1.6,15.6,13,23.3,19.4l4.8-18.9l-36.5-7.5
		L393.4,790z"/>
	<g>
		<path class="st0" d="M476.2,788.7c0,0,24.8,43.5,46,36.5c21.1-7,48.2,18.8,48.2,18.8l27.6-47.1l-47.1-27.6l-47.1-27.6l27.6-47.1
			l-47.1-27.6L456.7,714l-27.6,47.1L476.2,788.7z"/>
		<polygon class="st1" points="479.2,786.7 526.2,814.4 573.3,842 600.9,794.9 553.9,767.3 506.8,739.6 534.4,692.6 487.4,664.9 
			459.7,712 432.1,759.1 		"/>
		<polygon class="st1" points="451.9,686.1 431.3,736.6 410.7,787.2 360.2,766.5 380.8,716 401.4,665.5 350.9,644.8 371.5,594.3 
			422,614.9 472.6,635.5 		"/>
		<polygon class="st1" points="559.4,845.5 517.7,810.3 476,775.1 434.3,739.8 399.1,781.5 440.8,816.8 482.5,852 524.2,887.2 
			565.9,922.4 601.1,880.7 		"/>
	</g>
	<path class="st0" d="M394.3,792.5c7.5,8.1,15.3,45.8,9.8,52.3c-5.5,6.5-12.2-30.3-12.2-30.3"/>
	<path class="st1" d="M394.3,792.5c7.5,8.1,12.7,30.6,7.2,37.1c-5.5,6.5-9.6-15.1-9.6-15.1"/>
	<polygon class="st0" points="399.4,822.8 381.1,820.3 384.2,806 	"/>
	<path class="st5" d="M384.7,813.4L358.2,803c0,0,1.2,4.7-9.8,10c-11,5.3-20.9,14.9-20.9,14.9s4.7,49.9,11.3,93.8
		c0,0,37.1-24.6,44.3-63C387.3,836.9,384.7,813.4,384.7,813.4z"/>
	<path class="st3" d="M399,806"/>
	<path class="st3" d="M531.2,826.8"/>
	<path class="st0" d="M334.2,809.1l0.4-0.3c-0.9-0.3-1.9-0.8-2.5-1.3c-1.8,1,0.7-4.6-2-3c-14.5,8.7-12.9,23.9-12.9,23.9
		c-15,17.9,14.3,86,14.3,86s-2-7.8,0.1-31c2-22.2-0.4-43.2-0.4-43.2c9,3.3,17.6-10.6,5.6-20C328.7,813.8,334.2,809.1,334.2,809.1z"
		/>
	<path class="st1" d="M399.4,822.8l-11.2-9.1c5.3,13.7-7.6,29.9-24.6,36.5c-17.1,6.7-35.2,1-40.6-12.7c-5.3-13.7,4.1-30.2,21.2-36.8
		c0,0,34.7-8.1,50.2-8.2"/>
	<path class="st1" d="M342.2,802.8c0,0-6.8-1.4-5.8-3.7c1-2.3,16.2-6.2,20.2-0.4"/>
	<path class="st5" d="M339,802.2c0,0-4.8-0.4-8.9,2.3c-14.3,9.1-8.9,20.3-8.9,20.3c-15,17.9,17.7,96.9,17.7,96.9s-4.6-22-2.5-45.2
		c2-22.2-0.4-43.2-0.4-43.2c9,3.3,16.4-9.2,5.6-20c-6.7-6.7,8.6-3.2,8.6-11.1C342.3,803.4,339,802.2,339,802.2z"/>
	<path class="st1" d="M381.6,807.2c0,0,4.4,2.3,6.5,6.4"/>
	<path class="st4" d="M406.4,792.5c0,0,5.5-4.8,5.8-4.6c0.3,0.2,10.5,6.3,10.5,6.3l2.1,7.8l-0.9,3.2l-17.8-8.7L406.4,792.5z"/>
	<path class="st1" d="M424.3,803.4c2.8,3.7,1,5.1,1,5.1l-12.3-6.7c-3-0.7-5.3-2.3-7.9-4.3c-8.6-6.6-5.5-14.6-5.5-14.6l2.9,2.5"/>
	<path class="st1" d="M424.4,799.6c6.1,2.8,5.5,6.1,5.5,6.1l-10.3-3.1c0,0-6.2-2.9-5.7-2.8"/>
	<path class="st1" d="M414.7,797.4l5.7,2.5l10.2,1.9c0,0,1-3.9-9.6-6.8"/>
	<path class="st1" d="M414.8,793.7l5.6,1.7l10.9,0.3c0,0-2.1-4.9-9.4-4c0,0-3.2-2.5-5.9-3.5c-2.1-2.7-6.6-4.5-9.4-4.5
		c-5,0-5,3.9-5,3.9"/>
</g>
<path class="st5" d="M400.7,895.2l-25.3-30.3l-3.6,17.9l25.9,39.7c5.3,5.7,14.8,3.1,16.5-4.5"/>
<path class="st1" d="M363.6,860.2c4.1,0,11.3,7.5,11.3,7.5l-2.3,11.3c0,0-2-3.1-6.4-0.9c-3.6,1.8-9,0.6-11.2-3.6
	c-1.4-2.6-3-7.7-2-9.6c-3.3,0-4.4-5.1,0.9-5C359.1,859.9,363.6,860.2,363.6,860.2z"/>
<g>
	<g>
		
			<rect x="358.3" y="851.6" transform="matrix(0.9743 -0.2251 0.2251 0.9743 -183.6855 102.8332)" class="st6" width="1.7" height="10.8"/>
		<path class="st1" d="M365.6,885.1L365.6,885.1c-1.5,0.3-3-0.6-3.3-2.1l-4.9-21.4c-0.3-1.5,0.6-3,2.1-3.3l0,0
			c1.5-0.3,3,0.6,3.3,2.1l4.9,21.4C368,883.3,367.1,884.7,365.6,885.1z"/>
	</g>
	<g>
		<circle class="st1" cx="354.5" cy="837.7" r="16.8"/>
		<polygon class="st6" points="337.7,837.1 359.7,853.7 365.7,850.3 339.3,830.5 		"/>
		<polygon class="st6" points="340.8,828 367.8,847.9 369,846.2 342.3,826.5 		"/>
	</g>
</g>
<path class="st1" d="M358.7,878c0,0,2.9,1.9,4.9-1c2.7-3.9,0.2-7.6,0.2-7.6l-2.6-7.4l-6.7,0.3"/>
<path class="st1" d="M359.9,864.9h-7.7c-1.4,0-2.5-1.1-2.5-2.5l0,0c0-1.4,1.1-2.5,2.5-2.5h7.7c1.4,0,2.5,1.1,2.5,2.5l0,0
	C362.4,863.7,361.3,864.9,359.9,864.9z"/>
<line class="st5" x1="399.7" y1="882.8" x2="401.6" y2="909.1"/>
<path class="st1" d="M364.4,866.9c1.7,6.8-4.2,4.4-4.2,4.4c0.9-2.6-4.4-11,2.5-11c0,0,3.7,0.1,7,2.8"/>
<line class="st2" x1="55.4" y1="286" x2="55.4" y2="359"/>
<line class="st2" x1="138.2" y1="286" x2="219.1" y2="286"/>
<line class="st2" x1="381.6" y1="389.6" x2="381.6" y2="341.3"/>
<line class="st2" x1="437" y1="286" x2="437" y2="207.2"/>
<line class="st2" x1="600.9" y1="375.5" x2="600.9" y2="264.8"/>
<line class="st2" x1="601.2" y1="226" x2="601.2" y2="196.6"/>
<line class="st2" x1="109" y1="439" x2="109" y2="480"/>
<line class="st2" x1="256.5" y1="135.4" x2="300.4" y2="135.4"/>
</svg>
